<svg width="32" height="32" viewBox="0 0 32 32" fill="none" xmlns="http://www.w3.org/2000/svg">
<rect width="32" height="32" fill="url(#paint0_linear_1781_97)"/>
<g filter="url(#filter0_d_1781_97)">
<path d="M17.349 22.2C16.1172 22.2 15.1782 21.0971 15.3746 19.8811L15.3939 19.7618C15.4652 19.32 15.6826 18.915 16.0113 18.6115L23.04 12.12H16.848L17.0671 10.6959C17.2172 9.72022 18.0567 9 19.0438 9H25.5328C26.7586 9 27.6959 10.0926 27.5095 11.3041L27.4903 11.4291C27.4215 11.8764 27.203 12.2872 26.8705 12.5943L19.848 19.08H26.544L26.3116 20.5189C26.155 21.4878 25.3186 22.2 24.3372 22.2H17.349Z" fill="white"/>
<path d="M9.02142 22.68C7.85342 22.68 6.86942 22.464 6.06942 22.032C5.26942 21.584 4.69342 20.968 4.34142 20.184C4.00542 19.384 3.91742 18.456 4.07742 17.4L4.58142 14.28C4.75742 13.224 5.14142 12.304 5.73342 11.52C6.34142 10.72 7.10942 10.104 8.03742 9.672C8.98142 9.224 10.0374 9 11.2054 9C12.3734 9 13.3494 9.224 14.1334 9.672C14.9334 10.104 15.5014 10.72 15.8374 11.52C16.1894 12.304 16.2774 13.224 16.1014 14.28L15.9869 14.996C15.8316 15.9662 14.9946 16.68 14.012 16.68H7.62942L7.50942 17.4C7.38142 18.232 7.48542 18.864 7.82142 19.296C8.15742 19.712 8.72542 19.92 9.52542 19.92C10.0854 19.92 10.5494 19.824 10.9174 19.632C11.1922 19.4946 11.4096 19.3204 11.5697 19.1093C11.6862 18.9556 11.8563 18.84 12.0491 18.84H15.2614C14.9574 19.608 14.4934 20.28 13.8694 20.856C13.2454 21.432 12.5174 21.88 11.6854 22.2C10.8694 22.52 9.98142 22.68 9.02142 22.68ZM12.6114 14.5944L12.6694 14.232C12.7974 13.416 12.7094 12.792 12.4054 12.36C12.1014 11.928 11.5574 11.712 10.7734 11.712C9.98942 11.712 9.36542 11.936 8.90142 12.384C8.43742 12.832 8.14142 13.464 8.01342 14.28L7.94142 14.64L12.6114 14.5944Z" fill="white"/>
</g>
<defs>
<filter id="filter0_d_1781_97" x="2" y="8" width="27.5332" height="17.6799" filterUnits="userSpaceOnUse" color-interpolation-filters="sRGB">
<feFlood flood-opacity="0" result="BackgroundImageFix"/>
<feColorMatrix in="SourceAlpha" type="matrix" values="0 0 0 0 0 0 0 0 0 0 0 0 0 0 0 0 0 0 127 0" result="hardAlpha"/>
<feOffset dy="1"/>
<feGaussianBlur stdDeviation="1"/>
<feComposite in2="hardAlpha" operator="out"/>
<feColorMatrix type="matrix" values="0 0 0 0 0 0 0 0 0 0 0 0 0 0 0 0 0 0 0.25 0"/>
<feBlend mode="normal" in2="BackgroundImageFix" result="effect1_dropShadow_1781_97"/>
<feBlend mode="normal" in="SourceGraphic" in2="effect1_dropShadow_1781_97" result="shape"/>
</filter>
<linearGradient id="paint0_linear_1781_97" x1="32" y1="32" x2="0" y2="0" gradientUnits="userSpaceOnUse">
<stop stop-color="#FF8FAB"/>
<stop offset="0.7" stop-color="#FFC2D1"/>
</linearGradient>
</defs>
</svg>
